<svg height="1598" width="720" xmlns="http://www.w3.org/2000/svg">
<rect height="1598" fill="#555" width="720"></rect>
<text fill="#7f7" font-family="Courier New" font-size="12" xml:space="preserve">
<tspan x="10" y="26">4 megabytes installed</tspan>
<tspan x="10" y="42"></tspan>
<tspan x="10" y="58">node_modules</tspan>
<tspan x="10" y="74">└─┬ gulp-decompress@2.0.1 </tspan>
<tspan x="10" y="90">  ├─┬ archive-type@3.2.0 </tspan>
<tspan x="10" y="106">  │ └── file-type@3.9.0 </tspan>
<tspan x="10" y="122">  ├─┬ decompress@4.0.0 </tspan>
<tspan x="10" y="138">  │ ├─┬ decompress-tar@4.1.0 </tspan>
<tspan x="10" y="154">  │ │ ├── is-stream@1.1.0 </tspan>
<tspan x="10" y="170">  │ │ └─┬ tar-stream@1.5.2 </tspan>
<tspan x="10" y="186">  │ │   ├── bl@1.2.0 </tspan>
<tspan x="10" y="202">  │ │   └─┬ end-of-stream@1.4.0 </tspan>
<tspan x="10" y="218">  │ │     └─┬ once@1.4.0 </tspan>
<tspan x="10" y="234">  │ │       └── wrappy@1.0.2 </tspan>
<tspan x="10" y="250">  │ ├─┬ decompress-tarbz2@4.1.0 </tspan>
<tspan x="10" y="266">  │ │ ├─┬ seek-bzip@1.0.5 </tspan>
<tspan x="10" y="282">  │ │ │ └─┬ commander@2.8.1 </tspan>
<tspan x="10" y="298">  │ │ │   └── graceful-readlink@1.0.1 </tspan>
<tspan x="10" y="314">  │ │ └─┬ unbzip2-stream@1.0.11 </tspan>
<tspan x="10" y="330">  │ │   ├─┬ buffer@3.6.0 </tspan>
<tspan x="10" y="346">  │ │   │ ├── base64-js@0.0.8 </tspan>
<tspan x="10" y="362">  │ │   │ └── ieee754@1.1.8 </tspan>
<tspan x="10" y="378">  │ │   └── through@2.3.8 </tspan>
<tspan x="10" y="394">  │ ├── decompress-targz@4.0.0 </tspan>
<tspan x="10" y="410">  │ ├─┬ decompress-unzip@4.0.1 </tspan>
<tspan x="10" y="426">  │ │ ├─┬ get-stream@2.3.1 </tspan>
<tspan x="10" y="442">  │ │ │ ├── object-assign@4.1.1 </tspan>
<tspan x="10" y="458">  │ │ │ └─┬ pinkie-promise@2.0.1 </tspan>
<tspan x="10" y="474">  │ │ │   └── pinkie@2.0.4 </tspan>
<tspan x="10" y="490">  │ │ └─┬ yauzl@2.8.0 </tspan>
<tspan x="10" y="506">  │ │   ├── buffer-crc32@0.2.13 </tspan>
<tspan x="10" y="522">  │ │   └─┬ fd-slicer@1.0.1 </tspan>
<tspan x="10" y="538">  │ │     └── pend@1.2.0 </tspan>
<tspan x="10" y="554">  │ ├─┬ mkdirp@0.5.1 </tspan>
<tspan x="10" y="570">  │ │ └── minimist@0.0.8 </tspan>
<tspan x="10" y="586">  │ ├── pify@2.3.0 </tspan>
<tspan x="10" y="602">  │ └─┬ strip-dirs@1.1.1 </tspan>
<tspan x="10" y="618">  │   ├── get-stdin@4.0.1 </tspan>
<tspan x="10" y="634">  │   ├─┬ is-absolute@0.1.7 </tspan>
<tspan x="10" y="650">  │   │ └── is-relative@0.1.3 </tspan>
<tspan x="10" y="666">  │   ├── is-natural-number@2.1.1 </tspan>
<tspan x="10" y="682">  │   ├── minimist@1.2.0 </tspan>
<tspan x="10" y="698">  │   └── sum-up@1.0.3 </tspan>
<tspan x="10" y="714">  ├─┬ gulp-util@3.0.8 </tspan>
<tspan x="10" y="730">  │ ├── array-differ@1.0.0 </tspan>
<tspan x="10" y="746">  │ ├── array-uniq@1.0.3 </tspan>
<tspan x="10" y="762">  │ ├── beeper@1.1.1 </tspan>
<tspan x="10" y="778">  │ ├─┬ chalk@1.1.3 </tspan>
<tspan x="10" y="794">  │ │ ├── ansi-styles@2.2.1 </tspan>
<tspan x="10" y="810">  │ │ ├── escape-string-regexp@1.0.5 </tspan>
<tspan x="10" y="826">  │ │ ├─┬ has-ansi@2.0.0 </tspan>
<tspan x="10" y="842">  │ │ │ └── ansi-regex@2.1.1 </tspan>
<tspan x="10" y="858">  │ │ ├── strip-ansi@3.0.1 </tspan>
<tspan x="10" y="874">  │ │ └── supports-color@2.0.0 </tspan>
<tspan x="10" y="890">  │ ├── dateformat@2.0.0 </tspan>
<tspan x="10" y="906">  │ ├─┬ fancy-log@1.3.0 </tspan>
<tspan x="10" y="922">  │ │ └── time-stamp@1.0.1 </tspan>
<tspan x="10" y="938">  │ ├─┬ gulplog@1.0.0 </tspan>
<tspan x="10" y="954">  │ │ └── glogg@1.0.0 </tspan>
<tspan x="10" y="970">  │ ├─┬ has-gulplog@0.1.0 </tspan>
<tspan x="10" y="986">  │ │ └── sparkles@1.0.0 </tspan>
<tspan x="10" y="1002">  │ ├── lodash._reescape@3.0.0 </tspan>
<tspan x="10" y="1018">  │ ├── lodash._reevaluate@3.0.0 </tspan>
<tspan x="10" y="1034">  │ ├── lodash._reinterpolate@3.0.0 </tspan>
<tspan x="10" y="1050">  │ ├─┬ lodash.template@3.6.2 </tspan>
<tspan x="10" y="1066">  │ │ ├── lodash._basecopy@3.0.1 </tspan>
<tspan x="10" y="1082">  │ │ ├── lodash._basetostring@3.0.1 </tspan>
<tspan x="10" y="1098">  │ │ ├── lodash._basevalues@3.0.0 </tspan>
<tspan x="10" y="1114">  │ │ ├── lodash._isiterateecall@3.0.9 </tspan>
<tspan x="10" y="1130">  │ │ ├─┬ lodash.escape@3.2.0 </tspan>
<tspan x="10" y="1146">  │ │ │ └── lodash._root@3.0.1 </tspan>
<tspan x="10" y="1162">  │ │ ├─┬ lodash.keys@3.1.2 </tspan>
<tspan x="10" y="1178">  │ │ │ ├── lodash._getnative@3.9.1 </tspan>
<tspan x="10" y="1194">  │ │ │ ├── lodash.isarguments@3.1.0 </tspan>
<tspan x="10" y="1210">  │ │ │ └── lodash.isarray@3.0.4 </tspan>
<tspan x="10" y="1226">  │ │ ├── lodash.restparam@3.6.1 </tspan>
<tspan x="10" y="1242">  │ │ └── lodash.templatesettings@3.1.1 </tspan>
<tspan x="10" y="1258">  │ ├── minimist@1.2.0 </tspan>
<tspan x="10" y="1274">  │ ├─┬ multipipe@0.1.2 </tspan>
<tspan x="10" y="1290">  │ │ └─┬ duplexer2@0.0.2 </tspan>
<tspan x="10" y="1306">  │ │   └─┬ readable-stream@1.1.14 </tspan>
<tspan x="10" y="1322">  │ │     ├── isarray@0.0.1 </tspan>
<tspan x="10" y="1338">  │ │     └── string_decoder@0.10.31 </tspan>
<tspan x="10" y="1354">  │ ├── object-assign@3.0.0 </tspan>
<tspan x="10" y="1370">  │ ├── replace-ext@0.0.1 </tspan>
<tspan x="10" y="1386">  │ ├─┬ through2@2.0.3 </tspan>
<tspan x="10" y="1402">  │ │ └── xtend@4.0.1 </tspan>
<tspan x="10" y="1418">  │ └─┬ vinyl@0.5.3 </tspan>
<tspan x="10" y="1434">  │   ├── clone@1.0.2 </tspan>
<tspan x="10" y="1450">  │   └── clone-stats@0.0.1 </tspan>
<tspan x="10" y="1466">  └─┬ readable-stream@2.2.9 </tspan>
<tspan x="10" y="1482">    ├── buffer-shims@1.0.0 </tspan>
<tspan x="10" y="1498">    ├── core-util-is@1.0.2 </tspan>
<tspan x="10" y="1514">    ├── inherits@2.0.3 </tspan>
<tspan x="10" y="1530">    ├── isarray@1.0.0 </tspan>
<tspan x="10" y="1546">    ├── process-nextick-args@1.0.7 </tspan>
<tspan x="10" y="1562">    ├── string_decoder@1.0.0 </tspan>
<tspan x="10" y="1578">    └── util-deprecate@1.0.2</tspan>
</text>
</svg>
